<svg width="28" height="28" viewBox="0 0 28 28" fill="none" xmlns="http://www.w3.org/2000/svg">
<path d="M14.0002 2.33337C7.56016 2.33337 2.3335 7.56004 2.3335 14C2.3335 20.44 7.56016 25.6667 14.0002 25.6667C20.4402 25.6667 25.6668 20.44 25.6668 14C25.6668 7.56004 20.4402 2.33337 14.0002 2.33337ZM14.0002 5.83337C15.9368 5.83337 17.5002 7.39671 17.5002 9.33337C17.5002 11.27 15.9368 12.8334 14.0002 12.8334C12.0635 12.8334 10.5002 11.27 10.5002 9.33337C10.5002 7.39671 12.0635 5.83337 14.0002 5.83337ZM14.0002 22.4C11.0835 22.4 8.50516 20.9067 7.00016 18.6434C7.03516 16.3217 11.6668 15.05 14.0002 15.05C16.3218 15.05 20.9652 16.3217 21.0002 18.6434C19.4952 20.9067 16.9168 22.4 14.0002 22.4Z" fill="white"/>
</svg>
