<svg width="16" height="16" viewBox="0 0 16 16" fill="none" xmlns="http://www.w3.org/2000/svg">
<path d="M1.29279 1.29296C1.48031 1.10549 1.73462 1.00017 1.99979 1.00017C2.26495 1.00017 2.51926 1.10549 2.70679 1.29296L7.99979 6.58596L13.2928 1.29296C13.385 1.19745 13.4954 1.12127 13.6174 1.06886C13.7394 1.01645 13.8706 0.988862 14.0034 0.987709C14.1362 0.986555 14.2678 1.01186 14.3907 1.06214C14.5136 1.11242 14.6253 1.18667 14.7192 1.28056C14.8131 1.37446 14.8873 1.48611 14.9376 1.60901C14.9879 1.7319 15.0132 1.86358 15.012 1.99636C15.0109 2.12914 14.9833 2.26036 14.9309 2.38236C14.8785 2.50437 14.8023 2.61471 14.7068 2.70696L9.41378 7.99996L14.7068 13.293C14.8889 13.4816 14.9897 13.7342 14.9875 13.9964C14.9852 14.2586 14.88 14.5094 14.6946 14.6948C14.5092 14.8802 14.2584 14.9854 13.9962 14.9876C13.734 14.9899 13.4814 14.8891 13.2928 14.707L7.99979 9.41396L2.70679 14.707C2.51818 14.8891 2.26558 14.9899 2.00339 14.9876C1.74119 14.9854 1.49038 14.8802 1.30497 14.6948C1.11956 14.5094 1.01439 14.2586 1.01211 13.9964C1.00983 13.7342 1.11063 13.4816 1.29279 13.293L6.58579 7.99996L1.29279 2.70696C1.10532 2.51943 1 2.26512 1 1.99996C1 1.73479 1.10532 1.48049 1.29279 1.29296Z" fill="#029008"/>
</svg>
