<svg width="14" height="16" viewBox="0 0 14 16" fill="none" xmlns="http://www.w3.org/2000/svg">
<path d="M12.2207 1.83984C10.3809 -5.96046e-08 7.38477 -5.96046e-08 5.54688 1.83984L0.449222 6.93359C0.416019 6.9668 0.39844 7.01172 0.39844 7.05859C0.39844 7.10547 0.416019 7.15039 0.449222 7.18359L1.16992 7.9043C1.20287 7.9371 1.24746 7.95551 1.29395 7.95551C1.34043 7.95551 1.38503 7.9371 1.41797 7.9043L6.51563 2.81055C7.14844 2.17773 7.99024 1.83008 8.88477 1.83008C9.7793 1.83008 10.6211 2.17773 11.252 2.81055C11.8848 3.44336 12.2324 4.28516 12.2324 5.17773C12.2324 6.07227 11.8848 6.91211 11.252 7.54492L6.05664 12.7383L5.21485 13.5801C4.42774 14.3672 3.14844 14.3672 2.36133 13.5801C1.98047 13.1992 1.77149 12.6934 1.77149 12.1543C1.77149 11.6152 1.98047 11.1094 2.36133 10.7285L7.51563 5.57617C7.64649 5.44727 7.81836 5.375 8.00196 5.375H8.00391C8.1875 5.375 8.35742 5.44727 8.48633 5.57617C8.61719 5.70703 8.6875 5.87891 8.6875 6.0625C8.6875 6.24414 8.61524 6.41602 8.48633 6.54492L4.27344 10.7539C4.24024 10.7871 4.22266 10.832 4.22266 10.8789C4.22266 10.9258 4.24024 10.9707 4.27344 11.0039L4.99414 11.7246C5.02709 11.7574 5.07168 11.7758 5.11817 11.7758C5.16465 11.7758 5.20925 11.7574 5.24219 11.7246L9.45313 7.51367C9.8418 7.125 10.0547 6.60938 10.0547 6.06055C10.0547 5.51172 9.83985 4.99414 9.45313 4.60742C8.65039 3.80469 7.34571 3.80664 6.54297 4.60742L6.04297 5.10938L1.39063 9.75976C1.07487 10.0737 0.82457 10.4471 0.654252 10.8585C0.483933 11.2699 0.396981 11.711 0.39844 12.1562C0.39844 13.0605 0.751956 13.9102 1.39063 14.5488C2.05274 15.209 2.91992 15.5391 3.78711 15.5391C4.6543 15.5391 5.52149 15.209 6.18164 14.5488L12.2207 8.51367C13.1094 7.62305 13.6016 6.4375 13.6016 5.17773C13.6035 3.91602 13.1113 2.73047 12.2207 1.83984Z" fill="white"/>
</svg>
