<svg width="32" height="32" viewBox="0 0 32 32" fill="none" xmlns="http://www.w3.org/2000/svg">
<path d="M8.5 18.25C7.90326 18.25 7.33097 18.0129 6.90901 17.591C6.48705 17.169 6.25 16.5967 6.25 16C6.25 15.4033 6.48705 14.831 6.90901 14.409C7.33097 13.9871 7.90326 13.75 8.5 13.75C9.09674 13.75 9.66903 13.9871 10.091 14.409C10.5129 14.831 10.75 15.4033 10.75 16C10.75 16.5967 10.5129 17.169 10.091 17.591C9.66903 18.0129 9.09674 18.25 8.5 18.25ZM16 18.25C15.4033 18.25 14.831 18.0129 14.409 17.591C13.9871 17.169 13.75 16.5967 13.75 16C13.75 15.4033 13.9871 14.831 14.409 14.409C14.831 13.9871 15.4033 13.75 16 13.75C16.5967 13.75 17.169 13.9871 17.591 14.409C18.0129 14.831 18.25 15.4033 18.25 16C18.25 16.5967 18.0129 17.169 17.591 17.591C17.169 18.0129 16.5967 18.25 16 18.25ZM23.5 18.25C22.9033 18.25 22.331 18.0129 21.909 17.591C21.4871 17.169 21.25 16.5967 21.25 16C21.25 15.4033 21.4871 14.831 21.909 14.409C22.331 13.9871 22.9033 13.75 23.5 13.75C24.0967 13.75 24.669 13.9871 25.091 14.409C25.5129 14.831 25.75 15.4033 25.75 16C25.75 16.5967 25.5129 17.169 25.091 17.591C24.669 18.0129 24.0967 18.25 23.5 18.25Z" fill="white"/>
</svg>
