<svg width="32" height="34" viewBox="0 0 32 34" fill="none" xmlns="http://www.w3.org/2000/svg">
<path d="M16 29.5C16.7956 29.5 17.5587 29.1708 18.1213 28.5847C18.6839 27.9987 19 27.2038 19 26.375H13C13 27.2038 13.3161 27.9987 13.8787 28.5847C14.4413 29.1708 15.2044 29.5 16 29.5ZM17.4925 6.21721C17.5134 5.99995 17.4904 5.78053 17.4249 5.57311C17.3595 5.36568 17.253 5.17485 17.1124 5.01293C16.9717 4.851 16.8001 4.72158 16.6085 4.633C16.4169 4.54442 16.2096 4.49866 16 4.49866C15.7904 4.49866 15.5831 4.54442 15.3915 4.633C15.1999 4.72158 15.0283 4.851 14.8876 5.01293C14.747 5.17485 14.6405 5.36568 14.5751 5.57311C14.5096 5.78053 14.4866 5.99995 14.5075 6.21721C12.8121 6.57643 11.2879 7.53496 10.1931 8.93049C9.09836 10.326 8.50022 12.0728 8.5 13.875C8.5 15.5906 7.75 23.25 5.5 24.8125H26.5C24.25 23.25 23.5 15.5906 23.5 13.875C23.5 10.0938 20.92 6.93752 17.4925 6.21721Z" fill="white"/>
</svg>
